<?xml version="1.0" encoding="UTF-8"?>
<svg id="Capa_1" data-name="Capa 1" xmlns="http://www.w3.org/2000/svg" viewBox="0 0 160 160">
  <defs>
    <style>
      .cls-1 {
        fill: #000a44;
      }

      .cls-2 {
        fill: none;
        stroke: #b3b3b3;
        stroke-miterlimit: 10;
        stroke-width: .12px;
      }
    </style>
  </defs>
  <g>
    <line class="cls-2" x1="100.02" y1="64.35" x2="81.19" y2="38.65"/>
    <line class="cls-2" x1="48.35" y1="57.23" x2="55.42" y2="69.33"/>
    <circle class="cls-1" cx="79.78" cy="83.26" r="12.67"/>
    <g>
      <g>
        <polyline class="cls-2" points="93.73 122.24 79.36 109.57 111.55 111.01 94.62 122.85 65.22 121.71 68.25 102.26 79.45 109.44 98.55 99.06 102.67 82.08 99 64.45 96.63 45.19 109.41 53.17 99 64.45 99.03 63.38 56.99 69.76 56.5 71.87 58.56 45.59 66 60.53 55.6 71.2 54.83 71.07 45 79.52 44.6 70.47 48.35 111.29 63.91 120.82 65.22 121.71 57.39 95.41 41.77 96.79 45.3 81.64 56.81 94.81 56.84 94.08 41.77 96.79 48.13 111.11 48.26 111.01 68.25 102.26 66.49 101.34 56.81 94.81 56.2 71.14 56.14 71.58 43.76 62.76 47.88 58.31 43.76 62.76 44.64 70.2 48.44 57.47 48.67 57.21 59.07 46.54 59.29 46.69 66.67 60.68 80.86 38.7 95.61 45.18 96.63 45.19 78.14 50.88 80.76 38.95 59.77 46.46 78.14 50.88 97.38 62.39 99.94 62.67 109.7 70.85 110.07 54.57 110.4 51.95 117.5 84.64 116.87 85.95 111.55 111.01 97.59 99 98.48 99.45 116.87 85.95 102.67 82.08 109.67 71.02"/>
        <circle class="cls-1" cx="98.55" cy="99.06" r="3.07"/>
        <circle class="cls-1" cx="99.03" cy="63.38" r="3.07"/>
        <circle class="cls-1" cx="78.14" cy="50.88" r="3.07"/>
        <circle class="cls-1" cx="56.27" cy="70.55" r="3.07"/>
        <circle class="cls-1" cx="56.81" cy="94.81" r="3.07"/>
        <circle class="cls-1" cx="41.77" cy="96.79" r="1.8"/>
        <circle class="cls-1" cx="79.45" cy="109.44" r="1.8"/>
        <circle class="cls-1" cx="67.98" cy="102.34" r="1.8"/>
        <circle class="cls-1" cx="43.76" cy="62.76" r="1.8"/>
        <circle class="cls-1" cx="111.55" cy="111.01" r="1.8"/>
        <circle class="cls-1" cx="102.67" cy="82.08" r="1.8"/>
        <circle class="cls-1" cx="109.7" cy="70.85" r="1.01"/>
        <circle class="cls-1" cx="48.13" cy="111.11" r="1.01"/>
        <circle class="cls-1" cx="80.86" cy="38.7" r="1.01"/>
        <circle class="cls-1" cx="66.35" cy="59.98" r="1.01"/>
        <circle class="cls-1" cx="48.44" cy="57.47" r="1.01"/>
        <circle class="cls-1" cx="44.64" cy="70.2" r="1.01"/>
        <circle class="cls-1" cx="94.62" cy="122.85" r="3.07"/>
        <circle class="cls-1" cx="117.12" cy="85.68" r="3.07"/>
        <circle class="cls-1" cx="59.29" cy="46.69" r="3.07"/>
        <circle class="cls-1" cx="45.01" cy="81.12" r="3.07"/>
        <circle class="cls-1" cx="96.63" cy="45.19" r="3.07"/>
        <circle class="cls-1" cx="110" cy="53.25" r="3.07"/>
      </g>
      <circle class="cls-1" cx="64.65" cy="121.45" r="3.07"/>
    </g>
  </g>
  <path class="cls-1" d="M122.26,40.08C85.91,2.6,20.13,29.45,20.41,81.37c-1.23,53.56,65.33,79.13,101.76,42.43,23.53-21.81,23.4-61.65.09-83.72ZM79.84,133.67c-28.62,0-51.82-23.2-51.82-51.82s23.2-51.82,51.82-51.82,51.82,23.2,51.82,51.82-23.2,51.82-51.82,51.82Z"/>
</svg>