<?xml version="1.0" encoding="UTF-8"?>
<svg id="Capa_1" data-name="Capa 1" xmlns="http://www.w3.org/2000/svg" viewBox="0 0 119.38 118.46">
  <defs>
    <style>
      .cls-1 {
        fill: #fff;
      }

      .cls-2 {
        fill: none;
        stroke: #b3b3b3;
        stroke-miterlimit: 10;
        stroke-width: .12px;
      }
    </style>
  </defs>
  <g>
    <line class="cls-2" x1="79.63" y1="41.77" x2="60.8" y2="16.07"/>
    <line class="cls-2" x1="27.96" y1="34.66" x2="35.03" y2="46.75"/>
    <circle class="cls-1" cx="59.39" cy="60.68" r="12.67"/>
    <g>
      <g>
        <polyline class="cls-2" points="73.34 99.67 58.97 87 91.16 88.44 74.23 100.28 44.83 99.14 47.86 79.69 59.05 86.86 78.16 76.49 82.28 59.51 78.61 41.88 76.24 22.62 89.02 30.6 78.61 41.88 78.64 40.8 36.6 47.19 36.11 49.29 38.17 23.02 45.61 37.96 35.21 48.63 34.44 48.5 24.61 56.95 24.21 47.9 27.96 88.72 43.52 98.25 44.83 99.14 37 72.83 21.38 74.21 24.91 59.06 36.42 72.24 36.45 71.51 21.38 74.21 27.74 88.53 27.87 88.43 47.86 79.69 46.1 78.77 36.42 72.24 35.81 48.57 35.75 49.01 23.37 40.19 27.49 35.74 23.37 40.19 24.25 47.63 28.05 34.9 28.28 34.64 38.68 23.97 38.9 24.11 46.28 38.11 60.47 16.12 75.22 22.61 76.24 22.62 57.75 28.31 60.37 16.38 39.38 23.89 57.75 28.31 76.99 39.82 79.55 40.1 89.31 48.27 89.68 32 90.01 29.38 97.11 62.07 96.48 63.37 91.16 88.44 77.2 76.43 78.09 76.87 96.48 63.37 82.28 59.51 89.28 48.45"/>
        <circle class="cls-1" cx="78.16" cy="76.49" r="3.07"/>
        <circle class="cls-1" cx="78.64" cy="40.8" r="3.07"/>
        <circle class="cls-1" cx="57.75" cy="28.31" r="3.07"/>
        <circle class="cls-1" cx="35.88" cy="47.98" r="3.07"/>
        <circle class="cls-1" cx="36.42" cy="72.24" r="3.07"/>
        <circle class="cls-1" cx="21.38" cy="74.21" r="1.8"/>
        <circle class="cls-1" cx="59.05" cy="86.86" r="1.8"/>
        <circle class="cls-1" cx="47.59" cy="79.77" r="1.8"/>
        <circle class="cls-1" cx="23.37" cy="40.19" r="1.8"/>
        <circle class="cls-1" cx="91.16" cy="88.44" r="1.8"/>
        <circle class="cls-1" cx="82.28" cy="59.51" r="1.8"/>
        <circle class="cls-1" cx="89.31" cy="48.27" r="1.01"/>
        <circle class="cls-1" cx="27.74" cy="88.53" r="1.01"/>
        <circle class="cls-1" cx="60.47" cy="16.12" r="1.01"/>
        <circle class="cls-1" cx="45.96" cy="37.41" r="1.01"/>
        <circle class="cls-1" cx="28.05" cy="34.9" r="1.01"/>
        <circle class="cls-1" cx="24.25" cy="47.63" r="1.01"/>
        <circle class="cls-1" cx="74.23" cy="100.28" r="3.07"/>
        <circle class="cls-1" cx="96.73" cy="63.1" r="3.07"/>
        <circle class="cls-1" cx="38.9" cy="24.11" r="3.07"/>
        <circle class="cls-1" cx="24.62" cy="58.55" r="3.07"/>
        <circle class="cls-1" cx="76.24" cy="22.62" r="3.07"/>
        <circle class="cls-1" cx="89.61" cy="30.67" r="3.07"/>
      </g>
      <circle class="cls-1" cx="44.26" cy="98.88" r="3.07"/>
    </g>
  </g>
  <path class="cls-1" d="M101.87,17.51C65.52-19.97-.26,6.88.02,58.8c-1.23,53.56,65.33,79.13,101.76,42.43,23.53-21.81,23.4-61.65.09-83.72ZM59.45,111.1c-28.62,0-51.82-23.2-51.82-51.82S30.83,7.46,59.45,7.46s51.82,23.2,51.82,51.82-23.2,51.82-51.82,51.82Z"/>
</svg>