<?xml version="1.0" encoding="UTF-8"?>
<svg id="Capa_1" data-name="Capa 1" xmlns="http://www.w3.org/2000/svg" viewBox="0 0 130.84 40.61">
  <defs>
    <style>
      .cls-1 {
        fill: #000a44;
      }

      .cls-2 {
        fill: none;
        stroke: #b3b3b3;
        stroke-miterlimit: 10;
        stroke-width: .12px;
      }
    </style>
  </defs>
  <g>
    <path class="cls-1" d="M0,39.9V.76h8.21c3.94,0,7.05.39,9.33,1.17,2.45.76,4.67,2.05,6.67,3.88,4.04,3.68,6.06,8.53,6.06,14.53s-2.1,10.88-6.31,14.6c-2.11,1.86-4.33,3.15-6.64,3.88-2.16.73-5.23,1.09-9.2,1.09H0ZM5.91,34.35h2.66c2.65,0,4.86-.28,6.62-.84,1.76-.59,3.35-1.53,4.77-2.81,2.91-2.65,4.36-6.11,4.36-10.37s-1.44-7.77-4.31-10.44c-2.59-2.38-6.4-3.57-11.43-3.57h-2.66v28.04Z"/>
    <path class="cls-1" d="M93.49,6.31v33.59h-5.91V6.31h-9V.76h23.88v5.55h-8.98Z"/>
    <path class="cls-1" d="M129.82,6.59l-4.79,2.84c-.9-1.55-1.75-2.57-2.56-3.04-.85-.54-1.94-.81-3.27-.81-1.64,0-3,.46-4.08,1.39-1.08.91-1.62,2.06-1.62,3.45,0,1.91,1.42,3.45,4.26,4.61l3.9,1.6c3.18,1.28,5.5,2.85,6.97,4.7,1.47,1.85,2.2,4.12,2.2,6.81,0,3.6-1.2,6.57-3.6,8.92-2.42,2.37-5.42,3.55-9,3.55-3.4,0-6.2-1.01-8.42-3.02-2.18-2.01-3.54-4.84-4.08-8.49l5.98-1.32c.27,2.3.74,3.89,1.42,4.77,1.22,1.69,2.99,2.53,5.32,2.53,1.84,0,3.37-.62,4.59-1.85,1.22-1.23,1.82-2.8,1.82-4.69,0-.76-.11-1.46-.32-2.09-.21-.63-.54-1.22-.99-1.75-.45-.53-1.03-1.03-1.74-1.5-.71-.46-1.56-.91-2.53-1.33l-3.78-1.57c-5.36-2.26-8.04-5.58-8.04-9.94,0-2.94,1.12-5.4,3.37-7.38,2.25-1.99,5.04-2.99,8.39-2.99,4.51,0,8.04,2.2,10.57,6.59Z"/>
  </g>
  <g>
    <line class="cls-2" x1="63.65" y1="14.4" x2="57.19" y2="5.59"/>
    <line class="cls-2" x1="45.94" y1="11.96" x2="48.36" y2="16.11"/>
    <circle class="cls-1" cx="56.71" cy="20.88" r="4.34"/>
    <g>
      <g>
        <polyline class="cls-2" points="61.49 34.24 56.56 29.9 67.6 30.4 61.79 34.45 51.72 34.06 52.76 27.4 56.59 29.86 63.14 26.3 64.55 20.48 63.3 14.44 62.48 7.84 66.87 10.57 63.3 14.44 63.31 14.07 48.9 16.26 48.73 16.98 49.44 7.97 51.99 13.1 48.42 16.75 48.16 16.71 44.79 19.6 44.65 16.5 45.94 30.49 51.27 33.76 51.72 34.06 49.03 25.05 43.68 25.52 44.89 20.33 48.84 24.84 48.85 24.59 43.68 25.52 45.86 30.43 45.9 30.39 52.76 27.4 52.15 27.08 48.84 24.84 48.63 16.73 48.61 16.88 44.37 13.86 45.78 12.33 44.37 13.86 44.67 16.41 45.97 12.05 46.05 11.96 49.61 8.3 49.69 8.35 52.22 13.14 57.08 5.61 62.13 7.83 62.48 7.84 56.15 9.79 57.05 5.7 49.85 8.27 56.15 9.79 62.74 13.73 63.62 13.83 66.96 16.63 67.09 11.05 67.2 10.15 69.64 21.36 69.42 21.81 67.6 30.4 62.81 26.28 63.12 26.43 69.42 21.81 64.55 20.48 66.95 16.69"/>
        <circle class="cls-1" cx="63.14" cy="26.3" r="1.05"/>
        <circle class="cls-1" cx="63.31" cy="14.07" r="1.05"/>
        <circle class="cls-1" cx="56.15" cy="9.79" r="1.05"/>
        <circle class="cls-1" cx="48.65" cy="16.53" r="1.05"/>
        <circle class="cls-1" cx="48.84" cy="24.84" r="1.05"/>
        <circle class="cls-1" cx="43.68" cy="25.52" r=".62"/>
        <circle class="cls-1" cx="56.59" cy="29.86" r=".62"/>
        <circle class="cls-1" cx="52.66" cy="27.42" r=".62"/>
        <circle class="cls-1" cx="44.37" cy="13.86" r=".62"/>
        <circle class="cls-1" cx="67.6" cy="30.4" r=".62"/>
        <circle class="cls-1" cx="64.55" cy="20.48" r=".62"/>
        <circle class="cls-1" cx="66.96" cy="16.63" r=".35"/>
        <circle class="cls-1" cx="45.86" cy="30.43" r=".35"/>
        <circle class="cls-1" cx="57.08" cy="5.61" r=".35"/>
        <circle class="cls-1" cx="52.11" cy="12.91" r=".35"/>
        <circle class="cls-1" cx="45.97" cy="12.05" r=".35"/>
        <circle class="cls-1" cx="44.67" cy="16.41" r=".35"/>
        <circle class="cls-1" cx="61.79" cy="34.45" r="1.05"/>
        <circle class="cls-1" cx="69.51" cy="21.71" r="1.05"/>
        <circle class="cls-1" cx="49.69" cy="8.35" r="1.05"/>
        <circle class="cls-1" cx="44.79" cy="20.15" r="1.05"/>
        <circle class="cls-1" cx="62.48" cy="7.84" r="1.05"/>
        <circle class="cls-1" cx="67.07" cy="10.6" r="1.05"/>
      </g>
      <circle class="cls-1" cx="51.53" cy="33.97" r="1.05"/>
    </g>
  </g>
  <path class="cls-1" d="M70.66,6.01c-12.46-12.84-35-3.64-34.91,14.15-.42,18.36,22.39,27.12,34.88,14.54,8.06-7.47,8.02-21.13.03-28.69ZM56.12,38.08c-9.81,0-17.76-7.95-17.76-17.76S46.31,2.56,56.12,2.56s17.76,7.95,17.76,17.76-7.95,17.76-17.76,17.76Z"/>
</svg>