<?xml version="1.0" encoding="UTF-8"?>
<svg id="Capa_1" data-name="Capa 1" xmlns="http://www.w3.org/2000/svg" viewBox="0 0 146.75 45.55">
  <defs>
    <style>
      .cls-1 {
        fill: #fff;
      }

      .cls-2 {
        fill: none;
        stroke: #b3b3b3;
        stroke-miterlimit: 10;
        stroke-width: .12px;
      }
    </style>
  </defs>
  <g id="DTS">
    <path class="cls-1" d="M0,44.75V.85h9.21c4.42,0,7.91.44,10.46,1.31,2.75.85,5.24,2.3,7.48,4.35,4.53,4.13,6.8,9.56,6.8,16.29s-2.36,12.21-7.08,16.38c-2.37,2.09-4.85,3.54-7.45,4.35-2.43.82-5.87,1.22-10.32,1.22H0ZM6.63,38.53h2.99c2.98,0,5.45-.31,7.42-.94,1.97-.66,3.75-1.72,5.35-3.15,3.26-2.98,4.89-6.85,4.89-11.63s-1.61-8.72-4.83-11.71c-2.9-2.67-7.18-4.01-12.82-4.01h-2.99v31.45Z"/>
    <path class="cls-1" d="M104.86,7.08v37.67h-6.63V7.08h-10.09V.85h26.79v6.23h-10.07Z"/>
    <path class="cls-1" d="M145.61,7.39l-5.37,3.18c-1-1.74-1.96-2.88-2.87-3.41-.95-.61-2.17-.91-3.67-.91-1.84,0-3.36.52-4.58,1.56-1.21,1.02-1.82,2.31-1.82,3.87,0,2.14,1.59,3.87,4.78,5.17l4.38,1.79c3.56,1.44,6.17,3.2,7.82,5.27,1.65,2.08,2.47,4.62,2.47,7.63,0,4.04-1.35,7.37-4.04,10.01-2.71,2.65-6.08,3.98-10.09,3.98-3.81,0-6.96-1.13-9.44-3.38-2.45-2.26-3.97-5.43-4.58-9.53l6.71-1.48c.3,2.58.83,4.36,1.59,5.35,1.37,1.89,3.36,2.84,5.97,2.84,2.07,0,3.78-.69,5.15-2.08,1.36-1.38,2.05-3.14,2.05-5.26,0-.85-.12-1.63-.35-2.34-.24-.71-.61-1.36-1.11-1.96-.5-.6-1.15-1.16-1.95-1.68-.8-.52-1.74-1.02-2.84-1.49l-4.24-1.76c-6.01-2.54-9.01-6.26-9.01-11.15,0-3.3,1.26-6.06,3.78-8.27,2.52-2.24,5.66-3.35,9.41-3.35,5.06,0,9.01,2.46,11.86,7.39Z"/>
  </g>
  <g>
    <line class="cls-2" x1="71.38" y1="16.15" x2="64.15" y2="6.27"/>
    <line class="cls-2" x1="51.52" y1="13.42" x2="54.24" y2="18.07"/>
    <circle class="cls-1" cx="63.6" cy="23.42" r="4.87"/>
    <g>
      <g>
        <polyline class="cls-2" points="68.97 38.41 63.44 33.54 75.82 34.09 69.31 38.64 58.01 38.2 59.17 30.73 63.48 33.49 70.82 29.5 72.4 22.97 70.99 16.19 70.08 8.79 75 11.86 70.99 16.19 71 15.78 54.84 18.23 54.66 19.04 55.45 8.94 58.31 14.69 54.31 18.79 54.01 18.74 50.24 21.99 50.08 18.51 51.52 34.2 57.51 37.86 58.01 38.2 55 28.09 49 28.62 50.35 22.8 54.77 27.86 54.79 27.58 49 28.62 51.44 34.13 51.49 34.09 59.17 30.73 58.5 30.37 54.77 27.86 54.54 18.76 54.52 18.93 49.76 15.54 51.34 13.83 49.76 15.54 50.1 18.4 51.56 13.51 51.65 13.41 55.64 9.31 55.73 9.36 58.57 14.74 64.02 6.29 69.69 8.79 70.08 8.79 62.97 10.98 63.98 6.39 55.91 9.28 62.97 10.98 70.37 15.4 71.36 15.51 75.11 18.65 75.25 12.4 75.38 11.39 78.1 23.96 77.86 24.46 75.82 34.09 70.45 29.48 70.79 29.65 77.86 24.46 72.4 22.97 75.09 18.72"/>
        <circle class="cls-1" cx="70.82" cy="29.5" r="1.18"/>
        <circle class="cls-1" cx="71" cy="15.78" r="1.18"/>
        <circle class="cls-1" cx="62.97" cy="10.98" r="1.18"/>
        <circle class="cls-1" cx="54.57" cy="18.54" r="1.18"/>
        <circle class="cls-1" cx="54.77" cy="27.86" r="1.18"/>
        <circle class="cls-1" cx="49" cy="28.62" r=".69"/>
        <circle class="cls-1" cx="63.48" cy="33.49" r=".69"/>
        <circle class="cls-1" cx="59.07" cy="30.76" r=".69"/>
        <circle class="cls-1" cx="49.76" cy="15.54" r=".69"/>
        <circle class="cls-1" cx="75.82" cy="34.09" r=".69"/>
        <circle class="cls-1" cx="72.4" cy="22.97" r=".69"/>
        <circle class="cls-1" cx="75.11" cy="18.65" r=".39"/>
        <circle class="cls-1" cx="51.44" cy="34.13" r=".39"/>
        <circle class="cls-1" cx="64.02" cy="6.29" r=".39"/>
        <circle class="cls-1" cx="58.44" cy="14.48" r=".39"/>
        <circle class="cls-1" cx="51.56" cy="13.51" r=".39"/>
        <circle class="cls-1" cx="50.1" cy="18.4" r=".39"/>
        <circle class="cls-1" cx="69.31" cy="38.64" r="1.18"/>
        <circle class="cls-1" cx="77.96" cy="24.35" r="1.18"/>
        <circle class="cls-1" cx="55.73" cy="9.36" r="1.18"/>
        <circle class="cls-1" cx="50.24" cy="22.6" r="1.18"/>
        <circle class="cls-1" cx="70.08" cy="8.79" r="1.18"/>
        <circle class="cls-1" cx="75.22" cy="11.89" r="1.18"/>
      </g>
      <circle class="cls-1" cx="57.79" cy="38.1" r="1.18"/>
    </g>
  </g>
  <path class="cls-1" d="M79.25,6.74c-13.97-14.41-39.26-4.09-39.15,15.87-.47,20.59,25.11,30.42,39.12,16.31,9.05-8.38,8.99-23.7.03-32.18ZM62.94,42.71c-11,0-19.92-8.92-19.92-19.92S51.94,2.88,62.94,2.88s19.92,8.92,19.92,19.92-8.92,19.92-19.92,19.92Z"/>
</svg>